<svg 
 xmlns="http://www.w3.org/2000/svg"
 xmlns:xlink="http://www.w3.org/1999/xlink"
 width="25px" height="25px">
<path fill-rule="evenodd"  fill="rgb(127, 127, 127)"
 d="M16.687,2.851 C12.872,-0.964 6.664,-0.964 2.849,2.851 C-0.964,6.665 -0.964,12.872 2.849,16.687 C6.246,20.084 11.537,20.447 15.348,17.795 C15.429,18.175 15.613,18.536 15.907,18.832 L21.463,24.386 C22.271,25.194 23.579,25.194 24.386,24.386 C25.194,23.578 25.194,22.270 24.386,21.463 L18.831,15.907 C18.537,15.613 18.174,15.429 17.795,15.350 C20.448,11.537 20.084,6.249 16.687,2.851 ZM14.933,14.934 C12.085,17.781 7.451,17.781 4.603,14.934 C1.757,12.086 1.757,7.453 4.603,4.605 C7.451,1.757 12.085,1.757 14.933,4.605 C17.781,7.453 17.781,12.086 14.933,14.934 Z"/>
</svg>