<svg 
 xmlns="http://www.w3.org/2000/svg"
 xmlns:xlink="http://www.w3.org/1999/xlink"
 width="35px" height="22px">
<path fill-rule="evenodd"  fill="rgb(255, 162, 0)"
 d="M33.000,13.000 L2.000,13.000 C0.895,13.000 0.000,12.105 0.000,11.000 C0.000,9.896 0.895,9.000 2.000,9.000 L33.000,9.000 C34.105,9.000 35.000,9.896 35.000,11.000 C35.000,12.105 34.105,13.000 33.000,13.000 ZM33.000,4.000 L2.000,4.000 C0.895,4.000 0.000,3.104 0.000,2.000 C0.000,0.895 0.895,0.000 2.000,0.000 L33.000,0.000 C34.105,0.000 35.000,0.895 35.000,2.000 C35.000,3.104 34.105,4.000 33.000,4.000 ZM2.000,18.000 L33.000,18.000 C34.105,18.000 35.000,18.895 35.000,20.000 C35.000,21.105 34.105,22.000 33.000,22.000 L2.000,22.000 C0.895,22.000 0.000,21.105 0.000,20.000 C0.000,18.895 0.895,18.000 2.000,18.000 Z"/>
</svg>