<svg 
 xmlns="http://www.w3.org/2000/svg"
 xmlns:xlink="http://www.w3.org/1999/xlink"
 width="16px" height="13px">
<path fill-rule="evenodd"  fill="rgb(255, 255, 255)"
 d="M15.745,1.512 C15.389,1.666 15.020,1.788 14.641,1.876 C15.059,1.488 15.372,1.004 15.549,0.463 L15.549,0.463 C15.600,0.309 15.428,0.176 15.286,0.258 L15.286,0.258 C14.759,0.563 14.191,0.792 13.599,0.939 C13.565,0.947 13.529,0.952 13.494,0.952 C13.386,0.952 13.281,0.912 13.198,0.841 C12.568,0.299 11.758,-0.000 10.916,-0.000 C10.552,-0.000 10.185,0.055 9.824,0.165 C8.705,0.504 7.842,1.405 7.571,2.517 C7.470,2.934 7.442,3.351 7.490,3.757 C7.495,3.804 7.473,3.837 7.459,3.852 C7.434,3.879 7.400,3.894 7.363,3.894 C7.359,3.894 7.355,3.894 7.351,3.893 C4.903,3.671 2.696,2.519 1.135,0.649 L1.135,0.649 C1.056,0.554 0.903,0.566 0.840,0.672 L0.840,0.672 C0.534,1.184 0.373,1.770 0.373,2.366 C0.373,3.279 0.748,4.140 1.401,4.767 C1.126,4.704 0.861,4.604 0.614,4.470 L0.614,4.470 C0.495,4.405 0.348,4.488 0.346,4.622 L0.346,4.622 C0.329,5.979 1.142,7.186 2.361,7.730 C2.336,7.731 2.312,7.731 2.287,7.731 C2.094,7.731 1.898,7.713 1.706,7.677 L1.706,7.677 C1.571,7.652 1.459,7.776 1.500,7.903 L1.500,7.903 C1.896,9.109 2.959,9.999 4.231,10.200 C3.175,10.892 1.946,11.258 0.666,11.258 L0.267,11.258 C0.144,11.258 0.040,11.336 0.009,11.452 C-0.022,11.567 0.035,11.688 0.140,11.747 C1.582,12.567 3.226,13.000 4.897,13.000 C6.359,13.000 7.726,12.717 8.962,12.158 C10.094,11.645 11.095,10.913 11.936,9.980 C12.720,9.112 13.333,8.109 13.758,7.000 C14.163,5.944 14.377,4.816 14.377,3.739 L14.377,3.688 C14.377,3.515 14.457,3.352 14.596,3.242 C15.126,2.821 15.588,2.327 15.968,1.771 L15.968,1.771 C16.068,1.624 15.910,1.441 15.745,1.512 L15.745,1.512 Z"/>
</svg>